<svg id="图层_1" data-name="图层 1" xmlns="http://www.w3.org/2000/svg" viewBox="0 0 281.59 85.04"><defs><style>.cls-1{fill:none;stroke:#0000a8;stroke-miterlimit:10;stroke-width:0.75px;}.cls-2{fill:#0000a8;}.cls-3,.cls-6{fill:#6a157a;}.cls-4{fill:#40a629;}.cls-5{fill:#5c545c;}.cls-6{fill-rule:evenodd;}</style></defs><title>X-Lab</title><line class="cls-1" x1="120.29" y1="18.18" x2="120.29" y2="85.04"/><path class="cls-2" d="M61.66,148.8l.77-1.09,0,0a11.74,11.74,0,0,0-2.44-1.3h0l-.74,1,0,0a9.51,9.51,0,0,1,2.38,1.39Z" transform="translate(-59.2 -69.98)"/><path class="cls-2" d="M62.28,145.32l0,0,.79-1,0,0a9.6,9.6,0,0,0-2.43-1.39h0l-.75.93,0,0A10.36,10.36,0,0,1,62.28,145.32Z" transform="translate(-59.2 -69.98)"/><path class="cls-2" d="M64,155h1.23v-2.38h4v1.06c0,.12,0,.17-.22.17s-.79,0-1.41,0h-.06l0,.05a3.9,3.9,0,0,1,.36,1v0h0a6.26,6.26,0,0,0,2-.17c.46-.21.55-.57.55-1.1v-5.35H64ZM65.27,150v-.72h4V150Zm4,.9v.73h-4v-.73Z" transform="translate(-59.2 -69.98)"/><polygon class="cls-2" points="8.54 76.77 8.54 76.1 11.52 76.1 11.52 75.17 8.54 75.17 8.54 74.57 11.89 74.57 11.89 73.61 8.54 73.61 8.54 72.82 7.25 72.82 7.25 73.61 4.08 73.61 4.08 74.57 7.25 74.57 7.25 75.17 4.41 75.17 4.41 76.1 7.25 76.1 7.25 76.77 3.66 76.77 3.66 77.75 12.29 77.75 12.29 76.77 8.54 76.77"/><path class="cls-2" d="M62,149.7a41.18,41.18,0,0,1-2.34,4.22l0,0,1.07.83,0,0,0,0c.76-1.28,1.59-2.86,2.24-4.23v0l-1-.85Z" transform="translate(-59.2 -69.98)"/><path class="cls-2" d="M80.2,146.19l0,.05a3.46,3.46,0,0,1,.45.95v0h0c.51-.12,1-.27,1.76-.49v.81c0,1.26.39,1.61,1.8,1.61h2.14c1.15,0,1.5-.44,1.64-2v0h0a3.47,3.47,0,0,1-1.08-.44l0,0v.07c-.05,1.16-.14,1.36-.59,1.36H84.43c-.56,0-.65-.07-.65-.48v-1.21a19,19,0,0,0,3.93-1.75l0,0-1-1,0,0a15.59,15.59,0,0,1-3,1.49V143h-1.3v2.55c-.72.23-1.47.45-2.23.65Z" transform="translate(-59.2 -69.98)"/><path class="cls-2" d="M77,147.29l0,0,0,0a12.76,12.76,0,0,0,1.35-1.06v3.24h1.29v-4.55a13.1,13.1,0,0,0,1.26-1.7l0,0-1.22-.43,0,0a11.32,11.32,0,0,1-3.61,3.54l0,0,0,0A8.44,8.44,0,0,1,77,147.29Z" transform="translate(-59.2 -69.98)"/><polygon class="cls-2" points="23.65 80.9 23.65 79.4 22.28 79.4 22.28 80.9 17.01 80.9 17.01 82.16 22.28 82.16 22.28 84.97 23.65 84.97 23.65 82.16 28.93 82.16 28.93 80.9 23.65 80.9"/><path class="cls-2" d="M93.22,151.58l0,0c.32-.18.81-.32,4.13-1h0v0a7.76,7.76,0,0,1,0-1.06v-.05l-2.28.38a25.81,25.81,0,0,0,2.7-3.6l0,0-1.12-.72,0,0a14.57,14.57,0,0,1-.82,1.37l-1.46.13a21.64,21.64,0,0,0,2-3.64v0l-1.23-.57v0a16.05,16.05,0,0,1-1.78,3.6c-.29.46-.51.73-.76.79h0l0,0a7.1,7.1,0,0,1,.39,1.15v.05l0,0a7.45,7.45,0,0,1,1.93-.37,14,14,0,0,1-1.21,1.47c-.45.48-.75.76-1,.82h0l0,0a9.38,9.38,0,0,1,.4,1.15Z" transform="translate(-59.2 -69.98)"/><path class="cls-2" d="M97.06,148.06l0,0,0,0a5.5,5.5,0,0,1,.75,1l0,0h0a14.22,14.22,0,0,0,3.35-1.71,23.38,23.38,0,0,1,3.23,1.71l0,0,.77-1,0,0a24.84,24.84,0,0,0-3-1.49,8.67,8.67,0,0,0,2.1-2.72l0,0-.91-.47-.24.06H97.93v1.18h4.38A10.85,10.85,0,0,1,97.06,148.06Z" transform="translate(-59.2 -69.98)"/><path class="cls-2" d="M97.48,153.06l-.14-1.15h0c-1.72.42-3.35.81-4.44,1h0l.24,1.29h0l1.19-.32,3.15-.84Z" transform="translate(-59.2 -69.98)"/><polygon class="cls-2" points="42.64 80.64 45.24 80.64 45.24 79.46 38.83 79.46 38.83 80.64 41.34 80.64 41.34 83.43 38.03 83.43 38.03 84.64 45.89 84.64 45.89 83.43 42.64 83.43 42.64 80.64"/><path class="cls-2" d="M121.8,143.76h-4.16a7,7,0,0,0,.33-.68l0,0-1.24-.31h0v0a6,6,0,0,1-1.1,1.75v-.74H112.4c.1-.22.22-.44.31-.66l0,0-1.24-.34v0a7.28,7.28,0,0,1-1.91,2.7l0,0,0,0a6.23,6.23,0,0,1,1,.71l0,0,0,0a9.12,9.12,0,0,0,1.17-1.39h.36a7.56,7.56,0,0,1,.61,1.29v0l1.17-.38,0,0a6,6,0,0,0-.43-.91h1.85a5.26,5.26,0,0,1-.61.5l0,0,0,0,.12.08.24.15v.82h-4.91v2.63h1.23v-1.59h8.74v1.59h1.28v-2.63h-5.07v-.89q.32-.35.6-.72h.89a6.65,6.65,0,0,1,.83,1.31v0l1.14-.43,0,0,0,0a5.9,5.9,0,0,0-.54-.86h2.53Z" transform="translate(-59.2 -69.98)"/><path class="cls-2" d="M113.2,150.93h6.44v-2.84H112V155h1.24v-.38h5.62v.4h1.23v-3.38H113.2Zm5.14-1.86v.87H113.2v-.87Zm.48,3.53v1H113.2v-1Z" transform="translate(-59.2 -69.98)"/><path class="cls-2" d="M155.42,152.53a3.78,3.78,0,0,1-1-.47l-.06,0v.07c0,1.37-.08,1.55-.28,1.55h-.67c-.22,0-.24,0-.24-.35v-3.18h2.16v-1.19h-7.46v1.19h1.6c-.13,2-.6,3.16-2.7,3.82l-.07,0,.06,0a3.14,3.14,0,0,1,.69.95v0h0c2.48-.87,3.06-2.38,3.23-4.86h1.21v3.19c0,1.17.29,1.51,1.3,1.51h1c.9,0,1.19-.5,1.29-2.25v0Z" transform="translate(-59.2 -69.98)"/><path class="cls-2" d="M147.66,146.83h1v.91h5.58v-.91h1.09v-2.56H152v-1.42h-1.27v1.42h-3.05Zm1.17-.23v-1.2h5.28v1.2Z" transform="translate(-59.2 -69.98)"/><path class="cls-2" d="M147.61,150a4.11,4.11,0,0,0-1.09-2.74c.34-.86.73-2,1.21-3.43v0l-.84-.49h0l-.19.06h-2.95v11.59h1.15V144.53h1.33c-.16.54-.53,1.81-.9,2.86v0a3.64,3.64,0,0,1,1.1,2.46c0,.42-.08.71-.23.82a.68.68,0,0,1-.4.1,3,3,0,0,1-.59,0h-.16l0,.06a2.38,2.38,0,0,1,.32,1v0h0a4.34,4.34,0,0,0,.88,0,1.51,1.51,0,0,0,.72-.27A2,2,0,0,0,147.61,150Z" transform="translate(-59.2 -69.98)"/><path class="cls-2" d="M128.14,146.11h8.78v1.95h1.29v-3.12h-1.86c.42-.53.79-1,1.09-1.45l0,0-1.3-.56,0,0a12.72,12.72,0,0,1-1.23,2h-2l.41-.16v0a8.17,8.17,0,0,0-1.11-2v0l-1.13.45,0,0a9.36,9.36,0,0,1,.92,1.74h-2.29l.41-.21,0,0a8.14,8.14,0,0,0-1.27-1.77v0l-1.1.54,0,0a8.39,8.39,0,0,1,1,1.45H126.9v3.12h1.24Z" transform="translate(-59.2 -69.98)"/><path class="cls-2" d="M133.2,150.17v0a12.71,12.71,0,0,0,3.09-2.33l0,0-.87-.64-.26.07H129v1.14h5a13.2,13.2,0,0,1-1.35.9h-.7v.91h-5.18v1.2h5.18v2.18c0,.14,0,.21-.3.21s-1.17,0-2.11,0h-.06l0,.06a5.26,5.26,0,0,1,.51,1.2v0h0a7.92,7.92,0,0,0,2.48-.21c.53-.17.74-.52.74-1.24v-2.2h5.21v-1.2Z" transform="translate(-59.2 -69.98)"/><path class="cls-2" d="M95.57,89.28v15.11h4.2a6.71,6.71,0,0,0,6.72-6.71H107v14.54h-.55a6.71,6.71,0,0,0-6.71-6.7H95.57V122.3h7.28a10.07,10.07,0,0,0,10.07-10.08h.56v11.2h-28V122.3h3.36v-33H85.5V88.17h28v9.51h-.56a8.4,8.4,0,0,0-8.39-8.4Z" transform="translate(-59.2 -69.98)"/><path class="cls-2" d="M153.49,122.3h1.95v1.12H140.62V122.3h5V90.55a.11.11,0,0,0-.22,0l-10.69,32.91h-1.68l-10.69-32.9a.11.11,0,0,0-.22,0V122.3h5v1.12H117.4V122.3h1.95a1.12,1.12,0,0,0,1.12-1.12V90.4a1.12,1.12,0,0,0-1.12-1.12H117.4V88.17h11.47l7.72,23.73a.12.12,0,0,0,.22,0l7.72-23.73h10.91v1.11h-1.95a1.12,1.12,0,0,0-1.12,1.12v30.78A1.12,1.12,0,0,0,153.49,122.3Z" transform="translate(-59.2 -69.98)"/><path class="cls-2" d="M107.82,70a43.08,43.08,0,0,0-30.21,12l.27.35c8.43-5.09,19.13-7.83,30-7.83s21.45,2.74,29.89,7.83l.27-.35A43.12,43.12,0,0,0,107.82,70Z" transform="translate(-59.2 -69.98)"/><path class="cls-2" d="M100.75,136.5H102l-2.15-6h-.9l-2.15,6H98l.35-1h2.12Zm-1.37-4.26.72,2.2H98.63Z" transform="translate(-59.2 -69.98)"/><path class="cls-2" d="M62.18,131.51v5H61v-5H59.48v-1h4.23v1Z" transform="translate(-59.2 -69.98)"/><path class="cls-2" d="M70.36,136.5v-6h1.16v6Z" transform="translate(-59.2 -69.98)"/><path class="cls-2" d="M76.79,136.5l-2.32-3.64v3.64H73.3v-6h1l2.32,3.63v-3.63h1.16v6Z" transform="translate(-59.2 -69.98)"/><path class="cls-2" d="M115.82,136.5l-2.32-3.64v3.64h-1.16v-6h1l2.32,3.63v-3.63h1.16v6Z" transform="translate(-59.2 -69.98)"/><path class="cls-2" d="M88.52,136.5V134h-2v2.53H85.36v-6h1.17v2.47h2v-2.47h1.17v6Z" transform="translate(-59.2 -69.98)"/><path class="cls-2" d="M108.48,136.55a2.07,2.07,0,0,1-2.17-2.12v-4h1.15v3.93a1,1,0,1,0,2,0v-3.93h1.14v4A2.07,2.07,0,0,1,108.48,136.55Z" transform="translate(-59.2 -69.98)"/><path class="cls-2" d="M118.62,136.5v-6h1.17v6Z" transform="translate(-59.2 -69.98)"/><path class="cls-2" d="M123.77,136.5h-1l-2-6h1.24l1.19,3.73,1.18-3.73h1.25Z" transform="translate(-59.2 -69.98)"/><path class="cls-2" d="M126.8,136.5v-6h3.88v1H128v1.42h2.31v1H128v1.46h2.72v1.06Z" transform="translate(-59.2 -69.98)"/><path class="cls-2" d="M143.35,136.5v-6h1.16v6Z" transform="translate(-59.2 -69.98)"/><path class="cls-2" d="M148.54,131.51v5h-1.16v-5h-1.54v-1h4.23v1Z" transform="translate(-59.2 -69.98)"/><path class="cls-2" d="M153.68,134v2.48h-1.16V134l-1.76-3.56H152l1.1,2.43,1.08-2.43h1.25Z" transform="translate(-59.2 -69.98)"/><path class="cls-2" d="M81.57,134.14h1.06v.31a1,1,0,1,1-2,0v-1.94a1,1,0,1,1,2,0h1.16a2.18,2.18,0,0,0-4.35,0v1.94a2.18,2.18,0,0,0,4.35,0v-1.31H81.57Z" transform="translate(-59.2 -69.98)"/><path class="cls-2" d="M95.7,130.46v4a2.18,2.18,0,0,1-4.36,0v-4H92.5v4a1,1,0,1,0,2,0v-4Z" transform="translate(-59.2 -69.98)"/><path class="cls-2" d="M110.65,130.46v4a2.18,2.18,0,0,1-4.35,0v-4h1.16v4a1,1,0,1,0,2,0v-4Z" transform="translate(-59.2 -69.98)"/><path class="cls-2" d="M67.73,133.17l-.6-.28-.51-.24c-.46-.21-.63-.37-.63-.59s.3-.52.74-.52a1.92,1.92,0,0,1,1.19.48l.76-.84a3,3,0,0,0-2-.74c-1.18,0-2,.68-2,1.65,0,.64.39,1.14,1.19,1.51l.4.19.69.32c.46.22.65.41.65.68s-.41.66-1,.66a1.92,1.92,0,0,1-1.32-.63l-.8.88a3,3,0,0,0,2.13.86c1.28,0,2.2-.75,2.2-1.79A1.72,1.72,0,0,0,67.73,133.17Z" transform="translate(-59.2 -69.98)"/><path class="cls-2" d="M140.67,133.17l-.6-.28-.51-.24c-.46-.21-.63-.37-.63-.59s.31-.52.74-.52a1.92,1.92,0,0,1,1.19.48l.77-.84a3,3,0,0,0-2-.74,1.76,1.76,0,0,0-2,1.65,1.69,1.69,0,0,0,1.18,1.51l.41.19.68.32c.47.22.66.41.66.68s-.41.66-1,.66a1.9,1.9,0,0,1-1.32-.63l-.81.88a3.05,3.05,0,0,0,2.14.86,2,2,0,0,0,2.2-1.79A1.73,1.73,0,0,0,140.67,133.17Z" transform="translate(-59.2 -69.98)"/><path class="cls-2" d="M60.05,123.41h-.84V112.22h1.11c.84,5.71,4.59,11,10.69,10.91,5,0,8.91-2.65,8.9-7.55a6.71,6.71,0,0,0-4.48-6.15c-3.26-1.34-6.87-1.05-10.07-2.52a10,10,0,0,1-6.15-9.79,10.24,10.24,0,0,1,10.42-9.79,18.2,18.2,0,0,1,8.8,2.84c.43.28,1.47.8,2,.27a3.91,3.91,0,0,0,.71-2.27h.73v9.51H80.75c-.45-5.63-5.37-9-11.12-9-3.68,0-7.07,2.33-7.07,5.87,0,2.54,1.64,4.15,3.89,4.88,8.58,2.53,13.37,2.7,16.18,9.67a11.34,11.34,0,0,1-11.19,15.1,16.51,16.51,0,0,1-9.6-3.32c-.27-.18-.57-.47-.92-.41-.56.09-.69.85-.73,1.3S60.05,123.41,60.05,123.41Z" transform="translate(-59.2 -69.98)"/><path class="cls-2" d="M135.31,133.86a1.76,1.76,0,0,0-.63-3.4h-2.46v6h1.15V134h.78l1.21,2.52h1.21Zm-.63-.93h-1.31V131.5h1.31a.72.72,0,0,1,0,1.43Z" transform="translate(-59.2 -69.98)"/><path class="cls-3" d="M311.44,103.6a1,1,0,0,1-1-1v-1c0-.72-.31-1-1.08-1H298.58v1.91a1,1,0,0,1-2,0V99.62a1,1,0,0,1,1-1h11.79a2.85,2.85,0,0,1,3.08,3v1A1,1,0,0,1,311.44,103.6Z" transform="translate(-59.2 -69.98)"/><path class="cls-3" d="M329.45,113.33h-5.77a.85.85,0,0,1-.85-.85V103a.85.85,0,0,1,.85-.85h3.89c2.26,0,2.73,1.39,2.73,2.55v7.79A.85.85,0,0,1,329.45,113.33Zm-4.92-1.7h4.07v-6.94c0-.75-.2-.85-1-.85h-3Z" transform="translate(-59.2 -69.98)"/><path class="cls-3" d="M332.61,117.9a1,1,0,0,1-.74-.33,1,1,0,0,1,.08-1.42,1.94,1.94,0,0,0,.47-1.31v-12.9c0-1-.29-2.55-2.27-2.55h-6.37a1,1,0,0,1,0-2h6.37c2.6,0,4.27,1.79,4.27,4.55v12.9a3.82,3.82,0,0,1-1.14,2.8A1,1,0,0,1,332.61,117.9Z" transform="translate(-59.2 -69.98)"/><path class="cls-3" d="M319.76,117.19a1,1,0,0,1-1-1V101.12a1,1,0,0,1,2,0v15.07A1,1,0,0,1,319.76,117.19Z" transform="translate(-59.2 -69.98)"/><path class="cls-3" d="M309.36,110.13h-9.89a1,1,0,0,1,0-2h9.89a1,1,0,0,1,0,2Z" transform="translate(-59.2 -69.98)"/><path class="cls-3" d="M304.4,116.65a1,1,0,0,1-1-1v-6.17a1,1,0,0,1,2,0v6.17A1,1,0,0,1,304.4,116.65Z" transform="translate(-59.2 -69.98)"/><path class="cls-3" d="M310.93,117H297.87a1,1,0,0,1,0-2h13.06a1,1,0,0,1,0,2Z" transform="translate(-59.2 -69.98)"/><path class="cls-3" d="M329.29,108.35h-5.51a.84.84,0,0,1-.85-.84.85.85,0,0,1,.85-.85h5.51a.85.85,0,0,1,.85.85A.84.84,0,0,1,329.29,108.35Z" transform="translate(-59.2 -69.98)"/><path class="cls-3" d="M304.51,100.49a1,1,0,0,1-1-1v-1.8a1,1,0,0,1,2,0v1.8A1,1,0,0,1,304.51,100.49Z" transform="translate(-59.2 -69.98)"/><path class="cls-3" d="M321,99.67a1,1,0,0,1-.73-.31l-.52-.56a1,1,0,1,1,1.45-1.37l.53.55a1,1,0,0,1,0,1.42A1,1,0,0,1,321,99.67Z" transform="translate(-59.2 -69.98)"/><path class="cls-4" d="M291,148.4l2.7-5-2.6-4.7a.79.79,0,0,1,1.38-.76l2.11,3.85,2.13-3.85a.79.79,0,0,1,1.38.76l-2.6,4.7,2.7,5a.73.73,0,0,1-.31,1,.77.77,0,0,1-1.07-.28l-2.23-4.06-2.22,4.06a.76.76,0,0,1-1.06.28A.73.73,0,0,1,291,148.4Z" transform="translate(-59.2 -69.98)"/><path class="cls-4" d="M306.77,143.66h-5.11a.83.83,0,1,1,0-1.66h5.11a.83.83,0,0,1,0,1.66Z" transform="translate(-59.2 -69.98)"/><path class="cls-4" d="M312.07,147V133.15a.78.78,0,0,1,.78-.78.76.76,0,0,1,.78.78V147a1.29,1.29,0,0,0,.65,1.11.76.76,0,0,1,.29,1.07.77.77,0,0,1-1.07.28A2.91,2.91,0,0,1,312.07,147Z" transform="translate(-59.2 -69.98)"/><path class="cls-4" d="M323.55,140.9a1.79,1.79,0,0,0-1.09-1.64,1.7,1.7,0,0,0-1.92.39.77.77,0,0,1-.58.24.73.73,0,0,1-.54-.24.71.71,0,0,1-.24-.54.66.66,0,0,1,.24-.55,3.34,3.34,0,0,1,5.7,2.34v7.76a.78.78,0,0,1-.79.77h-2.6a3.38,3.38,0,1,1,0-6.76h1.82Zm-1.82,7h1.82v-3.64h-1.82a1.82,1.82,0,0,0,0,3.64Z" transform="translate(-59.2 -69.98)"/><path class="cls-4" d="M329.92,148.66V133.15a.78.78,0,1,1,1.56,0v7h1.83a3.39,3.39,0,0,1,3.38,3.38v2.54a3.39,3.39,0,0,1-3.38,3.38H330.7A.77.77,0,0,1,329.92,148.66Zm1.56-.79h1.83a1.81,1.81,0,0,0,1.82-1.82v-2.54a1.82,1.82,0,0,0-1.82-1.83h-1.83Z" transform="translate(-59.2 -69.98)"/><path class="cls-5" d="M339.9,134.22l-.3-.59h-.26v.59h-.22v-1.4h.55a.52.52,0,0,1,.18,0,.57.57,0,0,1,.13.08.38.38,0,0,1,.09.13.47.47,0,0,1,0,.17.32.32,0,0,1-.08.24.34.34,0,0,1-.2.13l.32.62Zm0-1a.19.19,0,0,0-.07-.16.24.24,0,0,0-.17-.06h-.31v.44h.31a.24.24,0,0,0,.17-.06A.19.19,0,0,0,339.89,133.23Z" transform="translate(-59.2 -69.98)"/><path class="cls-5" d="M339.59,134.73a1.21,1.21,0,0,1,0-2.42,1.21,1.21,0,1,1,0,2.42Zm0-2.25a1,1,0,1,0,1,1A1,1,0,0,0,339.59,132.48Z" transform="translate(-59.2 -69.98)"/><path class="cls-5" d="M339.9,97.58l-.3-.59h-.26v.59h-.22v-1.4h.55a.52.52,0,0,1,.18,0,.44.44,0,0,1,.22.22.41.41,0,0,1,0,.16.34.34,0,0,1-.08.25.37.37,0,0,1-.2.12l.32.62Zm0-1a.19.19,0,0,0-.07-.16.24.24,0,0,0-.17-.06h-.31v.44h.31a.29.29,0,0,0,.17,0A.19.19,0,0,0,339.89,96.59Z" transform="translate(-59.2 -69.98)"/><path class="cls-5" d="M339.59,98.1a1.21,1.21,0,1,1,1.21-1.21A1.21,1.21,0,0,1,339.59,98.1Zm0-2.26a1,1,0,1,0,1,1A1,1,0,0,0,339.59,95.84Z" transform="translate(-59.2 -69.98)"/><path class="cls-4" d="M212.17,133.51a.82.82,0,0,1-.86.85h-2.6v14.46a.82.82,0,0,1-.85.86.84.84,0,0,1-.85-.86V134.36H204.4a.86.86,0,0,1,0-1.71h6.91A.82.82,0,0,1,212.17,133.51Z" transform="translate(-59.2 -69.98)"/><path class="cls-4" d="M219.48,146.22a1.59,1.59,0,0,0-.72-1.28l-2.47-1.75a3.14,3.14,0,0,1-1.36-2.4,3.07,3.07,0,0,1,1-2.55,3.16,3.16,0,0,1,2.63-.82,3.3,3.3,0,0,1,2.29,1.56.8.8,0,0,1-.29,1.1.79.79,0,0,1-1.09-.3,1.6,1.6,0,0,0-3,.91,1.48,1.48,0,0,0,.69,1.19l2.47,1.73a3.33,3.33,0,0,1,1.39,2.5,3.2,3.2,0,0,1-1.06,2.64,3.24,3.24,0,0,1-2.72.85,3.34,3.34,0,0,1-2.37-1.63.8.8,0,0,1,1.39-.79,1.72,1.72,0,0,0,1.22.82,1.67,1.67,0,0,0,1.41-.42A1.59,1.59,0,0,0,219.48,146.22Z" transform="translate(-59.2 -69.98)"/><path class="cls-4" d="M224.59,134.2a1.07,1.07,0,1,1,1.06,1.06A1,1,0,0,1,224.59,134.2Zm1.06,15.42a.79.79,0,0,1-.79-.8V138.19a.8.8,0,1,1,1.59,0v10.63A.78.78,0,0,1,225.65,149.62Z" transform="translate(-59.2 -69.98)"/><path class="cls-4" d="M230.84,148.82V138.29a.79.79,0,0,1,.8-.8h2.66a3.48,3.48,0,0,1,3.46,3.46v7.87a.8.8,0,0,1-.8.8.78.78,0,0,1-.8-.8V141a1.85,1.85,0,0,0-1.86-1.86h-1.87v9.73a.79.79,0,0,1-.79.8A.78.78,0,0,1,230.84,148.82Z" transform="translate(-59.2 -69.98)"/><path class="cls-4" d="M241.62,146.06V141a3.45,3.45,0,0,1,3.45-3.46h2.66a.78.78,0,0,1,.8.8v13.2a3.4,3.4,0,0,1-2.13,3.19,3.5,3.5,0,0,1-3.78-.75.81.81,0,0,1-.24-.58.7.7,0,0,1,.24-.53.81.81,0,0,1,1.15,0,1.85,1.85,0,0,0,3.16-1.33v-2h-1.86A3.45,3.45,0,0,1,241.62,146.06Zm1.59-5.11v5.11a1.84,1.84,0,0,0,1.86,1.86h1.86v-8.83h-1.86A1.85,1.85,0,0,0,243.21,141Z" transform="translate(-59.2 -69.98)"/><path class="cls-4" d="M252.81,148.82V132.87a.81.81,0,0,1,.8-.8.79.79,0,0,1,.8.8v4.62h1.86a3.45,3.45,0,0,1,3.46,3.46v7.87a.78.78,0,0,1-.8.8.8.8,0,0,1-.8-.8V141a1.85,1.85,0,0,0-1.86-1.86h-1.86v9.73a.78.78,0,0,1-.8.8A.8.8,0,0,1,252.81,148.82Z" transform="translate(-59.2 -69.98)"/><path class="cls-4" d="M263.69,146.06v-7.87a.8.8,0,1,1,1.6,0v7.87a1.85,1.85,0,0,0,1.86,1.86H269v-9.73a.8.8,0,0,1,1.6,0v10.53a.79.79,0,0,1-.8.8h-2.66A3.46,3.46,0,0,1,263.69,146.06Z" transform="translate(-59.2 -69.98)"/><path class="cls-4" d="M279.26,140.79a1.84,1.84,0,0,0-1.12-1.67,1.74,1.74,0,0,0-2,.4.77.77,0,0,1-.58.24.76.76,0,0,1-.56-.24.77.77,0,0,1-.24-.56.68.68,0,0,1,.24-.56,3.41,3.41,0,0,1,5.82,2.39v7.93a.8.8,0,0,1-.8.8h-2.66a3.46,3.46,0,0,1,0-6.92h1.87Zm-1.87,7.13h1.87V144.2h-1.87a1.86,1.86,0,0,0,0,3.72Z" transform="translate(-59.2 -69.98)"/><path class="cls-3" d="M288.86,88.52c1.77,1.78-3.26,9.68-11.23,17.65s-15.88,13-17.65,11.23,3.25-9.68,11.22-17.65S287.08,86.75,288.86,88.52Z" transform="translate(-59.2 -69.98)"/><path class="cls-4" d="M277.83,106c7.9,7.94,12.87,15.78,11.1,17.55s-9.7-3.26-17.7-11.25-13-15.93-11.25-17.7c1.53-1.54,7.62,2,14.4,8.12l.07.07v6.28C276.5,107.36,277.83,106,277.83,106Z" transform="translate(-59.2 -69.98)"/><path class="cls-6" d="M249.9,94.3c-.12.56-.8.68-1.26.92-.72.36-1.49.63-2.22,1a8.36,8.36,0,0,0-3.7,3c-.18.26-.48.44-.68.69s-.44.68-.65,1c-.06.1,0,.23.19.18.5-.26,1-.54,1.48-.79a19,19,0,0,1,1.95-.9,1.24,1.24,0,0,1,1.73.91,1.07,1.07,0,0,0,.16.41c.49.51.34,1-.06,1.43-1.28,1.49-2.54,3-3.83,4.5-.39.45-.86.83-1.29,1.24a.1.1,0,0,0,.09.17c.33-.13.68-.22,1-.38.95-.49,1.9-1,2.82-1.53.44-.26.81-.26,1,.16s.37.79-.18,1.19a17.75,17.75,0,0,0-2.09,1.89c-.57.58-.45,1.11.26,1.52.27.15.55.26.82.4.56.29.67.59.27,1.08a6.64,6.64,0,0,1-1.35,1.24c-.89.63-1.82,1.19-2.76,1.76a1.07,1.07,0,0,0-.57,1c0,1.35,0,2.71,0,4.06,0,.28-.11.79-.36.85-.22-.18-.58-.31-.66-.54-.32-.91-.55-1.86-.8-2.8a4.06,4.06,0,0,1-.1-.78.46.46,0,0,0-.53-.5c-.63,0-.92-.33-.79-1l.68-.2a.9.9,0,0,0,.74-1c-.05-.65-.1-1.3-.13-1.95s-.29-.55-.66-.34a8.27,8.27,0,0,0-1.16.72c-.82.65-1.61,1.34-2.42,2a1.61,1.61,0,0,1-2.18-.18,6.86,6.86,0,0,1,.58-.37,19.39,19.39,0,0,0,4.69-3.33,9,9,0,0,0,.79-1c-.75-.41-.74-.49-.17-1s.51-1.38.52-2.3a4.53,4.53,0,0,0-.91.45,11.65,11.65,0,0,0-.88,1,1.84,1.84,0,0,1-1.55.83,1.78,1.78,0,0,0-.71.29c-.64.31-1.26.67-1.93.94-.18.07-.72.1-.72-.2s.21-.47.4-.59a8.91,8.91,0,0,1,1.51-.91,1.58,1.58,0,0,0,1-1.54,1.34,1.34,0,0,1,.17-.62c.17-.28.39-.44.74-.14a1,1,0,0,0,.74.14,2.3,2.3,0,0,0,1.72-1.87,12.9,12.9,0,0,0,.42-2.83,1.75,1.75,0,0,1,1-1.7c.52-.26,1-.59,1-1.34a2.64,2.64,0,0,0-1.92,1.33,8.32,8.32,0,0,1-.77,1,1,1,0,0,1-1.13.22,2.17,2.17,0,0,0-1.23.06,15.08,15.08,0,0,0-1.48.68,1.49,1.49,0,0,1-2-.54c.65-.32,1.28-.65,1.92-1a10.59,10.59,0,0,1,1.18-.56c1.53-.53,1.79-1.11,1.69-3.09,0-.37-.09-.74-.09-1.11,0-.17.08-.45.19-.49a.59.59,0,0,1,.52.17,4.66,4.66,0,0,1,.6,1c.69,1.61.65,1.48,2.3,1a6.56,6.56,0,0,0,3.56-2.87,29,29,0,0,1,1.94-2.48,1.09,1.09,0,0,1,1.06-.46c.29.05.52.47.65.78s-.05.48-.18.68a10.07,10.07,0,0,1-.78,1.07c-.06.09,0,.19.11.13a8,8,0,0,0,.76-.44c.86-.64,1.31-.72,1.82.12A.74.74,0,0,1,249.9,94.3ZM241.21,114a4.21,4.21,0,0,0,2.18-1.43.86.86,0,0,0,.05-.69.93.93,0,0,0-1.21-.7,1.24,1.24,0,0,0-1,1.14A15.32,15.32,0,0,0,241.21,114Zm.39-10.38c1.43-.34,2.1-1.49,3-2.55C243.27,101.11,241.65,102.52,241.6,103.62Zm1,1.26c-1.1,0-1.48.47-1.23,1.4Z" transform="translate(-59.2 -69.98)"/><path class="cls-6" d="M217.34,98.67a13.88,13.88,0,0,0-1.26.85c-.78.63-1.48,1.37-2.29,2a6.87,6.87,0,0,1-2,1.09,1.87,1.87,0,0,0-1.44,1.86c-.08,1.35-.08,2.72-.28,4-.25,1.61-.63,3.19-1,4.77a20.87,20.87,0,0,0-.68,5,3.61,3.61,0,0,1-.43,1.4c-.13.31-.39.32-.76.17a3,3,0,0,1-1.82-3.1c0-3.29,0-6.58,0-9.86,0-1.18-.12-2.36-.1-3.54a2.44,2.44,0,0,1,1.62-2.39c.28-.09.42,1,.6,1.56a2.25,2.25,0,0,0,.86,1.39c.64.44.48,1.2.42,1.88a7.2,7.2,0,0,0-.08,1.23,5.93,5.93,0,0,0,.52-2.69,4.63,4.63,0,0,1,.91-3,3,3,0,0,1,.66-.62c2-1.22,4-2.45,6.08-3.6a3.08,3.08,0,0,0,1.58-1.89c.35-1.23.65-2.48,1.05-3.69a8.26,8.26,0,0,1,.92-1.86,1,1,0,0,1,.83-.32,1,1,0,0,1,.57.6c.07.38.29.42.56.58a20.54,20.54,0,0,1,2.37,1.8c.13.1.06.59-.07.81a6,6,0,0,1-2.52,2.22c-1.44.83-1.75,1.45-1.3,3a1.66,1.66,0,0,1-.29,1.51c-.56.85-1,1.76-1.53,2.65a1.35,1.35,0,0,0-.07.34c.76-.49,1.45-1,2.19-1.39.32-.17.72-.56,1.1-.15s.12.91-.18,1.3-.76.85-1.1,1.3c-.09.13-.11.49,0,.55,1.11.71.71,1.71.64,2.7a53.3,53.3,0,0,0-.15,5.36c0,1.35.31,2.69.45,4a.87.87,0,0,1-.22.63,1.43,1.43,0,0,1-2.36-.19,22.32,22.32,0,0,1-1-2.09c-.09-.25.25-.09.28-.08,1.16.38,1.14.38,1.16-.82,0-.73-.07-1.34-.94-1.55-.24-.06-.43-.34-.7-.57a2.07,2.07,0,0,0-.21.46c-.23,1.32-.42,2.66-.67,4a5,5,0,0,1-.47,1.54,1,1,0,0,1-.87.46c-.31-.11-.74-.57-.72-.84a21.26,21.26,0,0,1,.55-3.27c.67-2.61,1.4-5.2,2.13-7.87-.38.11-.81.21-1.22.36s-.8.07-.94-.31a1,1,0,0,1,.12-.86,5.14,5.14,0,0,0,1-4.26,2,2,0,0,1,.17-1c.17-.5.39-1,.6-1.46C217.74,98.64,217.56,98.48,217.34,98.67Zm2.22,12.11c.13-1.26.07-1.37-.7-1.39C218.73,110.48,218.78,110.59,219.56,110.78Zm2.07-17.85a.86.86,0,0,0,.14.13c.2-.27.54-.53.56-.82s-.08-.85-.7-.8ZM219.7,107.7c.05-.41.47-.9-.3-1.1C219.23,107,219,107.43,219.7,107.7Z" transform="translate(-59.2 -69.98)"/><path class="cls-6" d="M205.7,93.47c.7.07,1.35.09,2,.21a1.89,1.89,0,0,1,.83.48,1.39,1.39,0,0,1,.25,1.72,1.84,1.84,0,0,1-2,.29A2.64,2.64,0,0,1,205.7,93.47Z" transform="translate(-59.2 -69.98)"/><path class="cls-3" d="M297.72,108a1,1,0,0,1-.65-1.76l4.72-4a1,1,0,1,1,1.29,1.52l-4.72,4A1,1,0,0,1,297.72,108Z" transform="translate(-59.2 -69.98)"/><path class="cls-3" d="M311.07,108a1,1,0,0,1-.64-.24l-4.72-4a1,1,0,1,1,1.29-1.52l4.72,4a1,1,0,0,1-.65,1.76Z" transform="translate(-59.2 -69.98)"/></svg>